<svg width="238" height="239" viewBox="0 0 238 239" fill="none" xmlns="http://www.w3.org/2000/svg">
<path d="M166.809 185.725C157.864 187.434 153.325 195.161 154.701 199.808C177.958 194.009 177.361 212.381 206.186 205.194C223.941 200.767 229.917 176.932 229.005 166.313C229.104 170.193 219.525 182.994 201.909 188.037C182.472 193.602 177.991 183.587 166.809 185.725Z" fill="black" stroke="black" stroke-linejoin="round"/>
<path d="M133.109 194.127C141.81 191.437 149.445 196.129 150.412 200.877C127.155 206.676 136.307 222.617 107.481 229.804C89.7267 234.231 73.2602 215.991 69.0801 206.186C70.8137 209.659 85.2813 216.465 103.203 212.647C122.978 208.435 122.232 197.49 133.109 194.127Z" fill="black" stroke="black" stroke-linejoin="round"/>
<path d="M184.879 87.2912C194.855 86.522 225.418 87.6961 229 103C234.5 126.5 212 139 194 148.5C175.5 156 149.19 159.923 129 156C126.101 155.437 123.36 154.603 120.715 153.567C91.424 147.17 84.8731 171.626 54 183C35 190 13 177 7.5 159C3.17892 144.858 14.3622 125.367 48 125.5C53.0786 124.654 86 126.169 115 131.121C146.5 136.5 162.511 130.008 174 120.5C188.5 108.5 184.879 98.5 184.879 87.2912C178 103 176.217 114.274 154 122.5C126.419 132.713 91.4577 116.059 47 118C34.1806 88.0307 32.1056 61.4304 34.4266 45.8144C36.7477 30.1983 48.8411 9.15071 95.3446 31.1432C121.488 -0.527325 150.516 -1.09161 163.69 14.6463C177.5 31.1432 183.636 58.8183 184.879 87.2912Z" fill="black"/>
</svg>
