<svg width="241" height="261" viewBox="0 0 241 261" fill="none" xmlns="http://www.w3.org/2000/svg">
<path d="M170.729 208.412C161.784 210.122 157.245 217.848 158.621 222.495C181.877 216.697 181.28 235.069 210.106 227.881C227.861 223.455 233.837 199.62 232.925 189C233.024 192.88 223.445 205.682 205.829 210.725C186.392 216.289 181.911 206.275 170.729 208.412Z" fill="black" stroke="black" stroke-linejoin="round"/>
<path d="M137.029 216.815C145.73 214.124 153.365 218.816 154.332 223.565C131.075 229.363 140.227 245.304 111.401 252.492C93.6467 256.918 77.1802 238.679 73 228.874C74.7336 232.346 89.2012 239.153 107.123 235.335C126.898 231.123 126.152 220.177 137.029 216.815Z" fill="black" stroke="black" stroke-linejoin="round"/>
<path d="M184.879 87.2912C194.855 86.522 225.418 87.696 229 103C234.5 126.5 212 139 194 148.5C175.5 156 149.19 159.923 129 156C126.101 155.437 123.36 154.603 120.714 153.567C91.424 147.17 84.873 171.626 54 183C35 190 13 177 7.49997 159C3.17889 144.858 14.3622 125.367 48 125.5C53.0785 124.654 86 126.169 115 131.121C146.5 136.5 162.511 130.008 174 120.5C188.5 108.5 184.879 98.5 184.879 87.2912C178 103 176.217 114.273 154 122.5C126.419 132.713 91.4576 116.059 47 118C34.1805 88.0306 32.1056 61.4304 34.4266 45.8143C36.7477 30.1983 48.8411 9.15068 95.3446 31.1432C121.488 -0.527356 150.516 -1.09164 163.69 14.6463C177.5 31.1431 183.636 58.8183 184.879 87.2912Z" fill="black"/>
</svg>
