<svg width="144" height="226" viewBox="0 0 144 226" fill="none" xmlns="http://www.w3.org/2000/svg">
<path d="M72 146C32.2355 146 0 178.236 0 218C0 222.418 3.58173 226 8 226C12.4183 226 16 222.418 16 218C16 187.072 41.0721 162 72 162C102.928 162 128 187.072 128 218C128 222.418 131.582 226 136 226C140.418 226 144 222.418 144 218C144 178.236 111.765 146 72 146Z" fill="black"/>
<circle cx="72" cy="94" r="40" fill="black"/>
<ellipse cx="72" cy="58" rx="64" ry="26" fill="black"/>
<rect x="36" width="72" height="64" rx="16" fill="black"/>
</svg>
